# xmcd
#
# Track frame offsets:
#	150
#	30234
#	68616
#	98626
#	120546
#	132086
#	150688
#
# Disc length: 2540 seconds
#
# Revision: 2
# Processed by: cddbd v1.5.1PL2 Copyright (c) Steve Scherf et al.
# Submitted via: EasyCDDAExtractor 8.0.2.1
#
DISCID=4909ea07
DTITLE=Judas Priest - Centrum Worcester 07-12-90 Disc 2
DYEAR=1990
DGENRE=Hard Rock
TTITLE0=Touch Of Evil
TTITLE1=Victim Of Changes
TTITLE2=Painkiller
TTITLE3=Green Manalishi
TTITLE4=Breaking The Law
TTITLE5=Living After Midnight
TTITLE6=You've Got Another Thing Comin'
EXTD=
EXTT0=
EXTT1=
EXTT2=
EXTT3=
EXTT4=
EXTT5=
EXTT6=
PLAYORDER=
